<?xml version="1.0" encoding="UTF-8" standalone="no"?>
<svg
   class="_svg_2dsp0_1"
   stroke-width="1"
   fill="none"
   width="262.8125"
   height="157.6875"
   version="1.1"
   id="svg2"
   sodipodi:docname="io-europa.svg"
   inkscape:version="1.3.2 (091e20e, 2023-11-25, custom)"
   xmlns:inkscape="http://www.inkscape.org/namespaces/inkscape"
   xmlns:sodipodi="http://sodipodi.sourceforge.net/DTD/sodipodi-0.dtd"
   xmlns="http://www.w3.org/2000/svg"
   xmlns:svg="http://www.w3.org/2000/svg">
  <defs
     id="defs2" />
  <sodipodi:namedview
     id="namedview2"
     pagecolor="#ffffff"
     bordercolor="#000000"
     borderopacity="0.25"
     inkscape:showpageshadow="2"
     inkscape:pageopacity="0.0"
     inkscape:pagecheckerboard="0"
     inkscape:deskcolor="#d1d1d1"
     inkscape:zoom="3.1667622"
     inkscape:cx="104.36527"
     inkscape:cy="76.418748"
     inkscape:window-width="1920"
     inkscape:window-height="1010"
     inkscape:window-x="-6"
     inkscape:window-y="-4"
     inkscape:window-maximized="1"
     inkscape:current-layer="svg2" />
  <rect
     class="_background_2dsp0_7"
     width="100%"
     height="100%"
     fill="white"
     id="rect1" />
  <line
     x1="0"
     y1="78.84375"
     x2="262.8125"
     y2="78.84375"
     class="_axis-line_2dsp0_10"
     stroke="#777"
     id="line1"
     style="stroke:#cccccc" />
  <line
     x1="131.40625"
     y1="0"
     x2="131.40625"
     y2="157.6875"
     class="_axis-line_2dsp0_10"
     stroke="#777"
     id="line2"
     style="stroke:#cccccc" />
  <path
     d="M 118.91767789156127 68.45363672281441 L 118.92505132646768 68.47132932081624 L 118.93015508502224 68.48372902983975 L 118.93641015714604 68.49910329592872 L 118.9427735507817 68.51495168165215 L 118.94893518429618 68.53050537439715 L 118.95508605997107 68.5462441909268 L 118.96078237820458 68.56101674086163 L 118.96654665149639 68.57616610273105 L 118.97237275673967 68.59169146967945 L 118.97811374418397 68.60720893465492 L 118.98380429610202 68.62281392080328 L 118.98937462412307 68.63831466746342 L 118.99492712588304 68.65399785256562 L 119.00032641051156 68.66948066976178 L 119.00557566107364 68.68476317311921 L 119.0108701889965 68.70041799361788 L 119.01598326140319 68.71577656397895 L 119.0210744973433 68.73131566154413 L 119.02604944701604 68.74674890938368 L 119.03073009318902 68.7615052086017 L 119.03545095440253 68.77663180727129 L 119.04020591263247 68.79212762202204 L 119.04476163635302 68.80723184660887 L 119.04926376006131 68.82241950147066 L 119.05368341542821 68.83759528121504 L 119.05807433904639 68.85294837873856 L 119.06235448423283 68.86819408248284 L 119.06634469172236 68.88267032046359 L 119.07043696377048 68.89779618464857 L 119.07442217907982 68.91281439777167 L 119.07837480564184 68.92800792290143 L 119.08222046825452 68.94309324988848 L 119.08600728576708 68.95825866831552 L 119.0897792388331 68.97369174846382 L 119.09339837966817 68.98882758302689 L 119.09697793752372 69.00413608221172 L 119.10047248511961 69.01942884140257 L 119.10388207625662 69.03470557258994 L 119.10714634146912 69.04968527051773 L 119.11028957644342 69.06446202915699 L 119.11339140914404 69.07940967464353 L 119.11635571684417 69.09406098261087 L 119.11935018698988 69.10925509545554 L 119.12218963793163 69.12405927391677 L 119.12501699277986 69.13921810152844 L 119.12766037396237 69.15380164819062 L 119.1303218818103 69.16892430239595 L 119.13283676873411 69.18365768928732 L 119.1353015293536 69.19855785466873 L 119.13766953396221 69.2133467119712 L 119.1399142723893 69.2278398376277 L 119.14214866897649 69.24277510825942 L 119.14423485726688 69.25723033217758 L 119.14631830384346 69.27221783666822 L 119.14829377543055 69.28700102079212 L 119.15017589982268 69.30167200216283 L 119.15198826824192 69.31641389576734 L 119.15373991437967 69.33131740313245 L 119.1553779359003 69.34592528567741 L 119.15696382715815 69.36078506000436 L 119.15844824794372 69.37544042746117 L 119.15985969188853 69.3901643983128 L 119.16118080327375 69.40477492140305 L 119.16242806421198 69.41945321814205 L 119.16357920480279 69.43392741012417 L 119.16464374997459 69.44828833755255 L 119.16565892028552 69.46307677642227 L 119.1665683223224 69.47748067528083 L 119.16738297136074 69.49159134832806 L 119.16813851533975 69.50603744696207 L 119.16880932653434 69.52036939495001 L 119.16940730572662 69.53485541479725 L 119.16992364042993 69.54931592755617 L 119.17035840876848 69.56375065851685 L 119.17071361741915 69.5782481941804 L 119.170984987928 69.59263037507755 L 119.17117225041892 69.60672034938585 L 119.17128255107355 69.62104954480387 L 119.17131194274572 69.63499878428344 L 119.17126310489701 69.64909802078841 L 119.17113629504836 69.6630823857047 L 119.17092692040703 69.67730291229618 L 119.170636708173 69.69149521517133 L 119.17027081517665 69.70548433531101 L 119.16982017894773 69.71961973175829 L 119.16928896127077 69.73372609259621 L 119.16867322347014 69.74788995046283 L 119.16796702494965 69.76219709778023 L 119.16724773013631 69.77526317172348 L 119.16639852955883 69.78925198816262 L 119.16546320074019 69.80329649592666 L 119.16446626656453 69.81705234086128 L 119.16338436947834 69.83086372007023 L 119.16225337933858 69.84430230154452 L 119.16100782192666 69.8581379032466 L 119.15965728468795 69.8721971206496 L 119.15826882019768 69.88579861689918 L 119.15677458054898 69.89962279161676 L 119.15518013595744 69.91358305758445 L 119.15356583411082 69.92700349739992 L 119.15186435519989 69.94047620113106 L 119.15011976327523 69.95366470299379 L 119.14824181309038 69.96724016199828 L 119.14633421043368 69.98044782926559 L 119.14433884284219 69.99370634381602 L 119.14221455653235 70.00726404490754 L 119.14002443649815 70.02070383669319 L 119.13774154697462 70.03419137415273 L 119.13537926713576 70.04764331838498 L 119.13295292207978 70.06097720293175 L 119.13041695587033 70.07443935117148 L 119.12784951422296 70.08761939966561 L 119.12518836385517 70.10084520730521 L 119.12243216671048 70.11411583815365 L 119.11963247708813 70.12718712437312 L 119.11681035786884 70.13997931519033 L 119.11387731309809 70.15289731430643 L 119.11083061107564 70.16593950212042 L 119.1077065449771 70.17894391199353 L 119.10450522425694 70.1919102831413 L 119.10112434578588 70.20523675761292 L 119.09787126011028 70.21772786785927 L 119.09441741249708 70.2306577657888 L 119.09092960761718 70.24339017699447 L 119.08729892942496 70.25631989052995 L 119.08361262058162 70.2691305522804 L 119.07987222321984 70.28182263938427 L 119.07603167592382 70.29455258287192 L 119.07216248531903 70.30708620478053 L 119.06824284129588 70.31950221996507 L 119.0641986653795 70.33203280113325 L 119.06005293296633 70.3445992072959 L 119.05585663062695 70.35704699199437 L 119.05163787815997 70.36930021416215 L 119.04731838693839 70.38158875514097 L 119.04286935861032 70.39398752644476 L 119.03842808018194 70.40611633679084 L 119.03382812543086 70.41842976155755 L 119.02915219150668 70.43069973103051 L 119.02440040334837 70.44292598702255 L 119.01960273384425 70.45503366837617 L 119.0147000781317 70.46717199655828 L 119.00972194621892 70.47926584065496 L 119.00466846570299 70.49131494407058 L 118.9995397648456 70.50331905060916 L 118.99430381597618 70.51535113149245 L 118.98905721846171 70.52719125030298 L 118.98373670472236 70.53898616587334 L 118.97827534639111 70.55088039829846 L 118.97287444324895 70.56243938805085 L 118.96733295446036 70.57409719604367 L 118.96164828962182 70.58585186699851 L 118.95613591419283 70.59706021633372 L 118.95030441060356 70.60872146657906 L 118.94447056770699 70.62019327511798 L 118.93860053822868 70.63154751691187 L 118.93277003994453 70.64264464082991 L 118.92672022428263 70.6539756162251 L 118.92071196969397 70.66505016235467 L 118.9144417711932 70.67642435635258 L 118.90825319299663 70.68747332095835 L 118.90175824303837 70.69888645841237 L 118.89558571809604 70.70956526272073 L 118.88918576861839 70.72047054938406 L 118.88255328097159 70.7315984802195 L 118.87597082557865 70.74247338468184 L 118.86931787270561 70.75329903963869 L 118.86263653684763 70.76400842803305 L 118.85563135059505 70.77506751165936 L 118.84876599587233 70.78574275018872 L 118.84196057017856 70.7961702640887 L 118.83491305817832 70.80681133118735 L 118.82801576503488 70.81707502055724 L 118.82091866094477 70.82748503106487 L 118.8137080359693 70.83790912884274 L 118.80642817400792 70.84828185888671 L 118.7989874931684 70.85873087481839 L 118.79175388340663 70.86874503150538 L 118.78417460279765 70.87908950796441 L 118.77657209046292 70.88931740689974 L 118.76890021109625 70.89949211803442 L 118.76106311277539 70.90973802489357 L 118.75334894827377 70.91968103412908 L 118.74556755703742 70.9295714720158 L 118.73752201443486 70.93965437530251 L 118.72965462429869 70.94937668450522 L 118.72162107043563 70.95916770134153 L 118.71341898546574 70.96902518332516 L 118.70530074736901 70.97864703119913 L 118.6971675293968 70.98815531792982 L 118.68891717501887 70.99766942260491 L 118.68049640659689 71.0072470548078 L 118.67190287524078 71.01688591500188 L 118.66355841992554 71.02611765721696 L 118.65515000773766 71.03529572193112 L 118.64635479915478 71.04476531914362 L 118.63770801021568 71.05394776972858 L 118.62888678335645 71.06318824206969 L 118.62016414377112 71.07220184051089 L 118.61115562086528 71.08138463502573 L 118.60196821525635 71.09062051435525 L 118.59299370475264 71.09951904003121 L 118.58406823051303 71.10825058173322 L 118.5751943229978 71.11681703817474 L 118.56591467933963 71.12565537790077 L 118.55680108046478 71.13421874830334 L 118.54733395708652 71.14299417243248 L 118.53774217728099 71.15176279668813 L 118.52873368814872 71.15988823828721 L 118.51901331375802 71.1685386433311 L 118.50934641143326 71.17702317830572 L 118.49973554006442 71.18534384833633 L 118.48981926690254 71.19381133955405 L 118.48026463613276 71.20185916288244 L 118.47034270337222 71.21010333992726 L 118.46054243659239 71.21813543203672 L 118.45055640264606 71.22620836872832 L 118.4405076511205 71.23422052773937 L 118.43039634963625 71.24217169520222 L 118.42022266636782 71.25006165775503 L 118.41005053869931 71.25784176803127 L 118.3998171345487 71.2655610127118 L 118.38932901588629 71.27336218995521 L 118.37903733590719 71.28091064657188 L 118.36862034590627 71.28844527905588 L 118.35794571882558 71.29605774166629 L 118.34734049776128 71.30351372851612 L 118.33674069692952 71.31086109794026 L 118.32601399102637 71.31819148438943 L 118.31515942155282 71.32550350191823 L 118.30424360150595 71.33275121118396 L 118.29347053862179 71.33980196669279 L 118.28263881298177 71.34679037130851 L 118.27147387333571 71.3538896535321 L 118.26066196302054 71.36066526213254 L 118.24951570889954 71.36754975673384 L 118.23824022292452 71.37441166167669 L 118.2269748874707 71.38116605700822 L 118.2157209836885 71.38781395139254 L 118.20440889894927 71.39439729907276 L 118.19282506740205 71.40103750553094 L 118.18125283955541 71.4075701884003 L 118.16954953482151 71.41407579022567 L 118.15800362424093 71.4203956975915 L 118.14640042767486 71.42665006036324 L 118.13459400947218 71.43291562347066 L 118.12280265151682 71.43907553801688 L 118.11102760932187 71.44513085130637 L 118.09934424609315 71.45104538341427 L 118.08753142967554 71.45693186387399 L 118.07521416222623 71.46297081581629 L 118.06306288467178 71.46883074009648 L 118.05108097150372 71.47451525343426 L 118.03889234335809 71.48020355215083 L 118.02649509053936 71.48589289843405 L 118.01419362933987 71.49144348022078 L 118.00160559498298 71.49702682960051 L 117.98919171655331 71.50243848162548 L 117.976567187545 71.50784695066534 L 117.96404200363978 71.51311931963727 L 117.95122686141917 71.5184184755229 L 117.93827616506265 71.5236769641535 L 117.92597909393582 71.52858112091508 L 117.91331361263798 71.53354268342481 L 117.90019621299261 71.53858661518433 L 117.88734207682626 71.54343694192633 L 117.87435373071607 71.54824609283445 L 117.86114968262879 71.55304156838912 L 117.84805218201245 71.55770621354736 L 117.8350634284859 71.56224250528862 L 117.82202224539373 71.56670828843805 L 117.8087648268998 71.57115787195643 L 117.79537172534053 71.57556159113608 L 117.78225544218827 71.57978619055704 L 117.76875623869275 71.58404404236606 L 117.7553702419558 71.58817688795223 L 117.7418487127279 71.59226222983665 L 117.72844273025645 71.59622490859654 L 117.71456453283366 71.60023605454062 L 117.70147834860126 71.60393421963016 L 117.68775054710812 71.60772686865342 L 117.67431205008243 71.61135429163421 L 117.66056815132742 71.61497770199875 L 117.64677373948727 71.61852736230225 L 117.6331013080024 71.62196037255805 L 117.61938000168833 71.62532111040612 L 117.60517620976285 71.62871163496698 L 117.59126914650348 71.63194501326241 L 117.57722581483978 71.63512420281674 L 117.5629578106932 71.63826668191778 L 117.54890346723259 71.64127658028784 L 117.53462425239422 71.64424848373534 L 117.52038434644756 71.64712648374781 L 117.50591816396428 71.64996332526435 L 117.49184850540502 71.65263911926866 L 117.47755357696272 71.65527435292849 L 117.46285222249968 71.65789756202506 L 117.44846178916183 71.6603806152896 L 117.43402450136246 71.66278826672067 L 117.41963123268025 71.66510601064175 L 117.40491922039041 71.66739056776497 L 117.39025105906644 71.66958393616977 L 117.3755362893626 71.67170028994389 L 117.36049962962258 71.67377672676957 L 117.3460598791436 71.67568934476863 L 117.33111443372226 71.67758560849616 L 117.31658605305299 71.67934830854935 L 117.30164253175381 71.68107905029379 L 117.28646718294148 71.68275183577765 L 117.27133909984869 71.68433498072201 L 117.25625934384948 71.68582978761555 L 117.24113488528799 71.68724611104929 L 116.85325050902028 71.69684935205964 L 116.46180362747535 71.65917126104492 L 116.04109063564624 71.57123502353008 L 115.60135218796178 71.43068235665542 L 115.14582903979121 71.23506511153056 L 114.68655756596148 70.98724090683592 L 114.2360699871686 70.69439254051662 L 113.7606209732082 70.3300424711457 L 113.32415266950899 69.94268944803311 L 112.8585424669102 69.46895709718957 L 112.39404823685716 68.92711939910097 L 111.97257820769602 68.36710820981193 L 111.54876888731643 67.72697257823049 L 111.16250422786578 67.06248111586675 L 110.78277534976624 66.31508333329326 L 110.43525164636554 65.52492508980629 L 110.12611821155815 64.70619994459278 L 109.83644245273238 63.79631738289693 L 109.5933752943727 62.86766030626012 L 109.38852898231221 61.883198725986944 L 109.22923296554809 60.863244325831545 L 109.11765201549522 59.811235514513584 L 109.05480264212963 58.703091668156034 L 109.04594011591357 57.56847988036682 L 109.08854504395137 56.47671489813578 L 109.1913524577032 55.28004420098179 L 109.35551827998711 54.06021208671625 L 109.583143171376 52.821093051533886 L 109.87612055389805 51.566702755190946 L 110.22888839646183 50.324551562169866 L 110.65611166683652 49.0522499484166 L 111.1302432561552 47.8320975083944 L 111.69848476598516 46.55107781232384 L 112.33490865061485 45.284067963944956 L 113.0341593365265 44.04314240857177 L 113.81889558791833 42.794471792059596 L 114.64411682775678 41.61054230468737 L 115.56640886384966 40.41327998559598 L 116.54137062745403 39.26632616961217 L 117.59812752007873 38.138069358910535 L 118.7383172600577 37.034323627093535 L 119.87236956253919 36.03719177974503 L 121.12226244064449 35.039626834879094 L 122.40286940036158 34.115023103328646 L 123.76890940758823 33.22570943133912 L 125.21265867474565 32.38378045053835 L 126.7056472998746 31.609310625985493 L 128.22475473276776 30.913297489898376 L 129.82499986006528 30.272913902219635 L 131.45434431440106 29.71209552708688 L 133.17205806363512 29.21442377245166 L 134.93434942536868 28.798225269327773 L 136.71525383153954 28.470133747527726 L 138.54387894389583 28.226082603297357 L 140.359078565971 28.07372473321147 L 142.2605603571453 28.007571560279317 L 144.19901069684934 28.036512739415677 L 146.07438486159063 28.155803061175085 L 148.06156914752043 28.379415732959714 L 149.99998596677077 28.693798478521728 L 151.95734128510605 29.10823162364293 L 153.90475860502676 29.618426287579446 L 155.87405272512095 30.235481270761156 L 157.8602072635932 30.96348511673093 L 159.71393587611183 31.741802180822155 L 161.647406574391 32.65933361353713 L 163.54734313308919 33.67105648545309 L 165.40936593018884 34.77434900959485 L 167.28597225587993 36.005374319015466 L 169.08082934223398 37.30274315885481 L 170.8679492699918 38.720654973159995 L 172.6400358236624 40.26244907928943 L 174.23639717756083 41.77896169950776 L 175.87161553916883 43.472025560933055 L 177.45581698498842 45.263944829080046 L 178.94708603478742 47.106384404976495 L 180.38803741311023 49.05247665414045 L 181.74739999530445 51.063609954345566 L 183.03028463683148 53.14771125223359 L 184.2400858354999 55.314276746228 L 185.35835418248644 57.53247896581433 L 186.38328431926882 59.79672764893428 L 187.3354856706723 62.159683293133206 L 188.1870348734035 64.55983481991586 L 188.94124383522552 67.00633784862129 L 189.59187547068765 69.47856947126209 L 190.15083676924897 72.03284226241043 L 190.5957956423262 74.57076474770156 L 190.9343708042112 77.1170513884253 L 191.1659580970175 79.64980219858101 L 191.2957238956492 82.24322122362918 L 191.3176281349617 84.8278372474745 L 191.23047672881887 87.44602147966019 L 191.03610152655665 90.02772329549191 L 190.72965488733675 92.63117697253291 L 190.32468739580943 95.15506602499899 L 189.7942887961305 97.75188105369541 L 189.17366617504706 100.24259331162102 L 188.4397933469036 102.73124298854336 L 187.60669239937062 105.1658795805103 L 186.70238288599214 107.48299839639283 L 185.66407804360426 109.84031997883002 L 184.51959045409248 112.15658667406709 L 183.30920487945573 114.35725330873633 L 182.00864469670995 116.49511797637027 L 180.62975747515236 118.55280992197137 L 179.12959165664074 120.58901036084858 L 177.55545635243055 122.53446901460951 L 175.92299622624785 124.37521147687653 L 174.1620419459512 126.18595934046124 L 172.3725488886662 127.86285206139817 L 170.48119877714043 129.4765717315439 L 168.54978229044067 130.97353711495515 L 166.59760065852012 132.34609613340567 L 164.51656234362156 133.66696157836736 L 162.4898582535051 134.82299787225853 L 160.32796673951168 135.92424194208405 L 158.12594837910086 136.9146444281593 L 155.94431632395685 137.77245891451352 L 153.67850347643983 138.53962387242385 L 151.345998606552 139.20317111835263 L 149.10765020538133 139.72378460511413 L 146.78511179284618 140.14716622167268 L 144.48298476370914 140.4519980464103 L 142.1637207836673 140.6453250493102 L 139.8182902002959 140.7257997950139 L 137.52338177495855 140.69292839745015 L 135.2128538100763 140.54795091072737 L 132.9764347696853 140.2996936479084 L 130.73425875665313 139.94253242108857 L 128.51935948140908 139.48092655167366 L 126.30950592695547 138.90950459467805 L 124.12389830895059 138.23151802215986 L 122.05844457419846 137.4832843978772 L 119.9606192051262 136.611042305978 L 118.04955759308851 135.7124601032923 L 116.09034283644152 134.6817552437666 L 114.19951043447688 133.5744693336669 L 112.40195642779908 132.41113772425888 L 110.58878762171878 131.11870527328801 L 108.87606706542633 129.77730667441392 L 107.2329249036849 128.36826961466772 L 105.6429876950757 126.87733295693106 L 104.15679400832076 125.35534232134063 L 102.72943316754382 123.75996345720807 L 101.39810144782896 122.13527066280795 L 100.19187616012289 120.52991244872379 L 99.01110085563822 118.81263532068638 L 97.91361042708432 117.06037612111811 L 96.90642985305706 115.28922185141917 L 95.9722077262827 113.47066557016205 L 95.1295310103622 111.64311982810312 L 94.35489766506906 109.75444017137647 L 93.68974791778862 107.9127483343363 L 93.09894650499527 106.03115281276139 L 92.6009079607698 104.1721797414954 L 92.18480079728954 102.30601659054516 L 91.85477712651905 100.46039139847306 L 91.60550920975666 98.61700686834901 L 91.43784100408237 96.79190103966593 L 91.34949082232077 94.96739805685799 L 91.34068470405829 93.1923193666311 L 91.40773489465118 91.44839162983605 L 91.549409378071 89.72914742249887 L 91.76143977536383 88.0594911185825 L 92.03790325422054 86.45218256701331 L 92.38519236685617 84.86080145088683 L 92.78215749524529 83.3656801460543 L 93.2416091683431 81.90210677630665 L 93.74893926522907 80.50927863254164 L 94.32475229266 79.12951683276954 L 94.94622355012532 77.81803622266011 L 95.61729415972356 76.56075645541172 L 96.30796796606552 75.4034498214689 L 97.04871108453764 74.28789158884597 L 97.82783710493871 73.23164253244221 L 98.64196226568512 72.23701995647116 L 99.47183649055536 71.32251636122862 L 100.31261484239617 70.48615210561415 L 101.18151338820189 69.70717338868194 L 102.0751413903409 68.98816134307572 L 102.98983174430546 68.33146051525459 L 103.83781723222641 67.78939359311516 L 104.7322937870044 67.28327003130342 L 105.62498309312001 66.84234092248326 L 106.52875456722454 66.45896120364876 L 107.4066758676292 66.14580745102064 L 108.26120729755903 65.89637158840267 L 109.12111233095385 65.70044350594281 L 109.97651702836576 65.56094719381686 L 110.7681667337124 65.48222685860986 L 111.56397853669365 65.45368749601616 L 112.32101037078236 65.475985054112 L 113.05524685026731 65.54671752401535 L 113.75442800233361 65.66275869314316 L 114.41214030375265 65.81969843329937 L 115.0342455323671 66.01602570945438 L 115.61108012211865 66.24578032748843 L 116.14477990744237 66.50640389199519 L 116.62800382297335 66.79044435852475 L 117.06889598584148 67.09922525452531 L 117.46549351815264 67.42930716403941 L 117.80801075895069 67.76836496595641 L 118.1104336794654 68.12748814481586 L 118.36032642528151 68.48969958855999 L 118.56153279226342 68.85539138456139 L 118.56153279226342 68.85539138456139 L 118.72278092508108 69.24545975412528 L 118.81690128624656 69.57481406323511 L 118.87471731473231 69.93191864120638 L 118.88444928340395 70.27460703434566 L 118.8472543980284 70.60324377070235 L 118.76355602900404 70.91370173703697 L 118.6395430653574 71.19181393601623 L 118.46796887293901 71.45302611843417 L 118.25895471927738 71.67894948947725"
     stroke="#222"
     class="_path_2dsp0_13"
     id="path2" />
</svg>
